<?xml version="1.0" encoding="UTF-8" standalone="no"?>
<!DOCTYPE svg PUBLIC "-//W3C//DTD SVG 1.1//EN"
 "http://www.w3.org/Graphics/SVG/1.1/DTD/svg11.dtd">
<!-- Generated by graphviz version 12.2.0 (20241103.1931)
 -->
<!-- Pages: 1 -->
<svg width="8829pt" height="172pt"
 viewBox="0.00 0.00 8828.94 172.33" xmlns="http://www.w3.org/2000/svg" xmlns:xlink="http://www.w3.org/1999/xlink">
<g id="graph0" class="graph" transform="scale(1 1) rotate(0) translate(4 168.33)">
<polygon fill="white" stroke="none" points="-4,4 -4,-168.33 8824.94,-168.33 8824.94,4 -4,4"/>
<!-- 1 -->
<g id="node1" class="node">
<title>1</title>
<ellipse fill="none" stroke="black" cx="27" cy="-75" rx="27" ry="18"/>
<text text-anchor="middle" x="27" y="-69.95" font-family="Times,serif" font-size="14.00">start</text>
</g>
<!-- 3 -->
<g id="node3" class="node">
<title>3</title>
<ellipse fill="none" stroke="black" cx="282" cy="-75" rx="27" ry="18"/>
<text text-anchor="middle" x="282" y="-69.95" font-family="Times,serif" font-size="14.00">The</text>
</g>
<!-- 1&#45;&gt;3 -->
<g id="edge1" class="edge">
<title>1&#45;&gt;3</title>
<path fill="none" stroke="black" d="M54.12,-75C99.1,-75 191.33,-75 243.28,-75"/>
<polygon fill="black" stroke="black" points="243.13,-78.5 253.13,-75 243.13,-71.5 243.13,-78.5"/>
<text text-anchor="middle" x="154.5" y="-78.2" font-family="Times,serif" font-size="14.00">Raimondo, Trumbull, Becerra</text>
</g>
<!-- 2 -->
<g id="node2" class="node">
<title>2</title>
<ellipse fill="none" stroke="black" cx="8793.94" cy="-64" rx="27" ry="18"/>
<text text-anchor="middle" x="8793.94" y="-58.95" font-family="Times,serif" font-size="14.00">end</text>
</g>
<!-- 4 -->
<g id="node4" class="node">
<title>4</title>
<ellipse fill="none" stroke="black" cx="799.33" cy="-128" rx="397.33" ry="18"/>
<text text-anchor="middle" x="799.33" y="-122.95" font-family="Times,serif" font-size="14.00">holdings of those cases that specific agency actions are lawful— including the Clean Air Act holding of</text>
</g>
<!-- 3&#45;&gt;4 -->
<g id="edge2" class="edge">
<title>3&#45;&gt;4</title>
<path fill="none" stroke="black" d="M306.05,-83.36C312.73,-85.5 320.09,-87.59 327,-89 359.81,-95.67 368.65,-93.1 402,-96 461.12,-101.15 525.22,-106.44 584.29,-111.21"/>
<polygon fill="black" stroke="black" points="583.89,-114.69 594.14,-112 584.45,-107.71 583.89,-114.69"/>
<text text-anchor="middle" x="355.5" y="-97.92" font-family="Times,serif" font-size="14.00">Raimondo</text>
</g>
<!-- 26 -->
<g id="node26" class="node">
<title>26</title>
<ellipse fill="none" stroke="black" cx="1306.57" cy="-41" rx="31.9" ry="18"/>
<text text-anchor="middle" x="1306.57" y="-35.95" font-family="Times,serif" font-size="14.00">Court</text>
</g>
<!-- 3&#45;&gt;26 -->
<g id="edge3" class="edge">
<title>3&#45;&gt;26</title>
<path fill="none" stroke="black" d="M309.04,-75.75C444.27,-79.46 1067.42,-94.33 1256.67,-59 1261.04,-58.18 1265.55,-57.01 1269.96,-55.66"/>
<polygon fill="black" stroke="black" points="1270.89,-59.04 1279.21,-52.5 1268.62,-52.42 1270.89,-59.04"/>
<text text-anchor="middle" x="799.33" y="-85.22" font-family="Times,serif" font-size="14.00">Trumbull</text>
</g>
<!-- 32 -->
<g id="node32" class="node">
<title>32</title>
<ellipse fill="none" stroke="black" cx="799.33" cy="-21" rx="44.19" ry="18"/>
<text text-anchor="middle" x="799.33" y="-15.95" font-family="Times,serif" font-size="14.00">Supreme</text>
</g>
<!-- 3&#45;&gt;32 -->
<g id="edge4" class="edge">
<title>3&#45;&gt;32</title>
<path fill="none" stroke="black" d="M298.93,-60.73C306.8,-54.56 316.79,-47.97 327,-44.5 471.93,4.82 656.41,-5.34 745.48,-14.42"/>
<polygon fill="black" stroke="black" points="745.07,-17.9 755.38,-15.48 745.81,-10.94 745.07,-17.9"/>
<text text-anchor="middle" x="355.5" y="-47.7" font-family="Times,serif" font-size="14.00">Becerra</text>
</g>
<!-- 5 -->
<g id="node5" class="node">
<title>5</title>
<ellipse fill="none" stroke="black" cx="2201.44" cy="-101" rx="42.65" ry="18"/>
<text text-anchor="middle" x="2201.44" y="-95.95" font-family="Times,serif" font-size="14.00">Chevron</text>
</g>
<!-- 4&#45;&gt;5 -->
<g id="edge5" class="edge">
<title>4&#45;&gt;5</title>
<path fill="none" stroke="black" d="M1073.47,-141.39C1345.05,-150.88 1773.09,-155.55 2140.79,-114 2144.7,-113.56 2148.73,-112.97 2152.76,-112.29"/>
<polygon fill="black" stroke="black" points="2153.37,-115.74 2162.55,-110.45 2152.08,-108.86 2153.37,-115.74"/>
<text text-anchor="middle" x="1384.97" y="-151.03" font-family="Times,serif" font-size="14.00">Raimondo</text>
</g>
<!-- 6 -->
<g id="node6" class="node">
<title>6</title>
<ellipse fill="none" stroke="black" cx="2570.64" cy="-74" rx="233.56" ry="18"/>
<text text-anchor="middle" x="2570.64" y="-68.95" font-family="Times,serif" font-size="14.00">itself— are still subject to statutory stare decisis despite our</text>
</g>
<!-- 5&#45;&gt;6 -->
<g id="edge6" class="edge">
<title>5&#45;&gt;6</title>
<path fill="none" stroke="black" d="M2236.87,-90.7C2245.07,-88.63 2253.83,-86.71 2262.09,-85.5 2283.68,-82.33 2306.22,-79.88 2328.84,-78"/>
<polygon fill="black" stroke="black" points="2329.11,-81.49 2338.8,-77.21 2328.56,-74.51 2329.11,-81.49"/>
<text text-anchor="middle" x="2290.59" y="-88.7" font-family="Times,serif" font-size="14.00">Raimondo</text>
</g>
<!-- 34 -->
<g id="node34" class="node">
<title>34</title>
<ellipse fill="none" stroke="black" cx="2570.64" cy="-128" rx="59.03" ry="18"/>
<text text-anchor="middle" x="2570.64" y="-122.95" font-family="Times,serif" font-size="14.00">that&quot;[ m] ere</text>
</g>
<!-- 5&#45;&gt;34 -->
<g id="edge7" class="edge">
<title>5&#45;&gt;34</title>
<path fill="none" stroke="black" d="M2243.85,-104.04C2306.47,-108.65 2425.95,-117.43 2501.51,-122.99"/>
<polygon fill="black" stroke="black" points="2501.05,-126.47 2511.28,-123.71 2501.56,-119.48 2501.05,-126.47"/>
<text text-anchor="middle" x="2290.59" y="-112.18" font-family="Times,serif" font-size="14.00">Becerra</text>
</g>
<!-- 7 -->
<g id="node7" class="node">
<title>7</title>
<ellipse fill="none" stroke="black" cx="3040.68" cy="-55" rx="143.48" ry="18"/>
<text text-anchor="middle" x="3040.68" y="-49.95" font-family="Times,serif" font-size="14.00">change in interpretive methodology</text>
</g>
<!-- 6&#45;&gt;7 -->
<g id="edge8" class="edge">
<title>6&#45;&gt;7</title>
<path fill="none" stroke="black" d="M2778.97,-65.58C2817.2,-64.03 2856.38,-62.44 2892.38,-60.98"/>
<polygon fill="black" stroke="black" points="2892.08,-64.49 2901.93,-60.59 2891.8,-57.5 2892.08,-64.49"/>
<text text-anchor="middle" x="2850.7" y="-66.56" font-family="Times,serif" font-size="14.00">Raimondo</text>
</g>
<!-- 8 -->
<g id="node8" class="node">
<title>8</title>
<ellipse fill="none" stroke="black" cx="3313.15" cy="-82" rx="36" ry="18"/>
<text text-anchor="middle" x="3313.15" y="-76.95" font-family="Times,serif" font-size="14.00">. Mere</text>
</g>
<!-- 7&#45;&gt;8 -->
<g id="edge9" class="edge">
<title>7&#45;&gt;8</title>
<path fill="none" stroke="black" d="M3154.42,-66.25C3193.62,-70.17 3235.42,-74.34 3266.13,-77.41"/>
<polygon fill="black" stroke="black" points="3265.53,-80.86 3275.82,-78.37 3266.22,-73.9 3265.53,-80.86"/>
<text text-anchor="middle" x="3230.65" y="-79.37" font-family="Times,serif" font-size="14.00">Raimondo</text>
</g>
<!-- 12 -->
<g id="node12" class="node">
<title>12</title>
<ellipse fill="none" stroke="black" cx="4284.95" cy="-41" rx="27" ry="18"/>
<text text-anchor="middle" x="4284.95" y="-35.95" font-family="Times,serif" font-size="14.00">&quot;</text>
</g>
<!-- 7&#45;&gt;12 -->
<g id="edge10" class="edge">
<title>7&#45;&gt;12</title>
<path fill="none" stroke="black" d="M3153.74,-43.59C3202.37,-39.56 3260.02,-36 3312.15,-36 3312.15,-36 3312.15,-36 4082.87,-36 4139.8,-36 4205.77,-38.03 4246.17,-39.5"/>
<polygon fill="black" stroke="black" points="4245.97,-43 4256.09,-39.87 4246.23,-36 4245.97,-43"/>
<text text-anchor="middle" x="3805.28" y="-39.2" font-family="Times,serif" font-size="14.00">Trumbull</text>
</g>
<!-- 9 -->
<g id="node9" class="node">
<title>9</title>
<ellipse fill="none" stroke="black" cx="3600.47" cy="-117" rx="158.32" ry="18"/>
<text text-anchor="middle" x="3600.47" y="-111.95" font-family="Times,serif" font-size="14.00">reliance on Chevron cannot constitute a</text>
</g>
<!-- 8&#45;&gt;9 -->
<g id="edge11" class="edge">
<title>8&#45;&gt;9</title>
<path fill="none" stroke="black" d="M3348.56,-86.22C3381.15,-90.22 3432.02,-96.46 3479.46,-102.28"/>
<polygon fill="black" stroke="black" points="3478.94,-105.74 3489.29,-103.48 3479.79,-98.79 3478.94,-105.74"/>
<text text-anchor="middle" x="3395.65" y="-98.54" font-family="Times,serif" font-size="14.00">Raimondo</text>
</g>
<!-- 10 -->
<g id="node10" class="node">
<title>10</title>
<ellipse fill="none" stroke="black" cx="3878.78" cy="-86" rx="27" ry="18"/>
<text text-anchor="middle" x="3878.78" y="-80.95" font-family="Times,serif" font-size="14.00">&quot;</text>
</g>
<!-- 9&#45;&gt;10 -->
<g id="edge12" class="edge">
<title>9&#45;&gt;10</title>
<path fill="none" stroke="black" d="M3715.05,-104.26C3759.99,-99.21 3808.52,-93.77 3840.78,-90.15"/>
<polygon fill="black" stroke="black" points="3840.83,-93.67 3850.38,-89.07 3840.05,-86.71 3840.83,-93.67"/>
<text text-anchor="middle" x="3805.28" y="-100.11" font-family="Times,serif" font-size="14.00">Raimondo</text>
</g>
<!-- 11 -->
<g id="node11" class="node">
<title>11</title>
<ellipse fill="none" stroke="black" cx="4081.87" cy="-91" rx="83.08" ry="18"/>
<text text-anchor="middle" x="4081.87" y="-85.95" font-family="Times,serif" font-size="14.00">special justification</text>
</g>
<!-- 9&#45;&gt;11 -->
<g id="edge13" class="edge">
<title>9&#45;&gt;11</title>
<path fill="none" stroke="black" d="M3756.49,-120.37C3825.38,-120.16 3907.35,-117.57 3980.78,-109 3989.76,-107.95 3999.15,-106.6 4008.42,-105.12"/>
<polygon fill="black" stroke="black" points="4008.87,-108.59 4018.16,-103.5 4007.72,-101.69 4008.87,-108.59"/>
<text text-anchor="middle" x="3878.78" y="-121.58" font-family="Times,serif" font-size="14.00">Becerra</text>
</g>
<!-- 10&#45;&gt;11 -->
<g id="edge14" class="edge">
<title>10&#45;&gt;11</title>
<path fill="none" stroke="black" d="M3906.07,-86.65C3927.03,-87.17 3957.71,-87.94 3987.54,-88.68"/>
<polygon fill="black" stroke="black" points="3987.31,-92.17 3997.39,-88.92 3987.48,-85.18 3987.31,-92.17"/>
<text text-anchor="middle" x="3952.28" y="-91.7" font-family="Times,serif" font-size="14.00">Raimondo</text>
</g>
<!-- 11&#45;&gt;12 -->
<g id="edge15" class="edge">
<title>11&#45;&gt;12</title>
<path fill="none" stroke="black" d="M4137.82,-77.34C4172.98,-68.59 4217.58,-57.5 4248.2,-49.89"/>
<polygon fill="black" stroke="black" points="4248.88,-53.33 4257.74,-47.52 4247.19,-46.53 4248.88,-53.33"/>
<text text-anchor="middle" x="4211.45" y="-69.2" font-family="Times,serif" font-size="14.00">Raimondo</text>
</g>
<!-- 13 -->
<g id="node13" class="node">
<title>13</title>
<ellipse fill="none" stroke="black" cx="4667.17" cy="-92" rx="119.42" ry="18"/>
<text text-anchor="middle" x="4667.17" y="-86.95" font-family="Times,serif" font-size="14.00">for overruling such a holding</text>
</g>
<!-- 11&#45;&gt;13 -->
<g id="edge16" class="edge">
<title>11&#45;&gt;13</title>
<path fill="none" stroke="black" d="M4165.2,-91.14C4261.6,-91.31 4422.48,-91.58 4535.87,-91.78"/>
<polygon fill="black" stroke="black" points="4535.86,-95.28 4545.86,-91.79 4535.87,-88.28 4535.86,-95.28"/>
<text text-anchor="middle" x="4284.95" y="-94.58" font-family="Times,serif" font-size="14.00">Becerra</text>
</g>
<!-- 12&#45;&gt;13 -->
<g id="edge17" class="edge">
<title>12&#45;&gt;13</title>
<path fill="none" stroke="black" d="M4311.54,-44.5C4317.58,-45.32 4323.99,-46.19 4329.95,-47 4408.84,-57.66 4498.17,-69.61 4564.91,-78.51"/>
<polygon fill="black" stroke="black" points="4564.38,-81.97 4574.76,-79.83 4565.31,-75.04 4564.38,-81.97"/>
<text text-anchor="middle" x="4358.45" y="-57.62" font-family="Times,serif" font-size="14.00">Raimondo</text>
</g>
<!-- 28 -->
<g id="node28" class="node">
<title>28</title>
<ellipse fill="none" stroke="black" cx="4667.17" cy="-29" rx="262.22" ry="18"/>
<text text-anchor="middle" x="4667.17" y="-23.95" font-family="Times,serif" font-size="14.00">meant that these precedents were&quot; wrongly decided,&quot; but explained</text>
</g>
<!-- 12&#45;&gt;28 -->
<g id="edge18" class="edge">
<title>12&#45;&gt;28</title>
<path fill="none" stroke="black" d="M4310.44,-34.1C4316.75,-32.62 4323.56,-31.27 4329.95,-30.5 4353.82,-27.64 4378.72,-25.66 4403.69,-24.35"/>
<polygon fill="black" stroke="black" points="4403.83,-27.85 4413.65,-23.87 4403.5,-20.85 4403.83,-27.85"/>
<text text-anchor="middle" x="4358.45" y="-33.7" font-family="Times,serif" font-size="14.00">Trumbull</text>
</g>
<!-- 14 -->
<g id="node14" class="node">
<title>14</title>
<ellipse fill="none" stroke="black" cx="5215.51" cy="-79" rx="193.12" ry="18"/>
<text text-anchor="middle" x="5215.51" y="-73.95" font-family="Times,serif" font-size="14.00">, because to say a precedent relied on Chevron is</text>
</g>
<!-- 13&#45;&gt;14 -->
<g id="edge19" class="edge">
<title>13&#45;&gt;14</title>
<path fill="none" stroke="black" d="M4785.71,-89.2C4852.89,-87.6 4938.91,-85.56 5016.26,-83.72"/>
<polygon fill="black" stroke="black" points="5016.17,-87.22 5026.09,-83.48 5016.01,-80.22 5016.17,-87.22"/>
<text text-anchor="middle" x="4975.88" y="-88.31" font-family="Times,serif" font-size="14.00">Raimondo</text>
</g>
<!-- 35 -->
<g id="node35" class="node">
<title>35</title>
<ellipse fill="none" stroke="black" cx="5215.51" cy="-133" rx="165.48" ry="18"/>
<text text-anchor="middle" x="5215.51" y="-127.95" font-family="Times,serif" font-size="14.00">.&quot; To argue as much, the Court continued</text>
</g>
<!-- 13&#45;&gt;35 -->
<g id="edge20" class="edge">
<title>13&#45;&gt;35</title>
<path fill="none" stroke="black" d="M4775.13,-100.03C4858.18,-106.26 4974.3,-114.97 5066.31,-121.88"/>
<polygon fill="black" stroke="black" points="5065.95,-125.36 5076.18,-122.62 5066.47,-118.38 5065.95,-125.36"/>
<text text-anchor="middle" x="4975.88" y="-119.37" font-family="Times,serif" font-size="14.00">Becerra</text>
</g>
<!-- 15 -->
<g id="node15" class="node">
<title>15</title>
<ellipse fill="none" stroke="black" cx="5528.63" cy="-99" rx="27" ry="18"/>
<text text-anchor="middle" x="5528.63" y="-93.95" font-family="Times,serif" font-size="14.00">,</text>
</g>
<!-- 14&#45;&gt;15 -->
<g id="edge21" class="edge">
<title>14&#45;&gt;15</title>
<path fill="none" stroke="black" d="M5403.24,-83.51C5430.26,-85.19 5457.7,-87.45 5483.63,-90.5 5486.14,-90.79 5488.72,-91.15 5491.32,-91.55"/>
<polygon fill="black" stroke="black" points="5490.66,-94.99 5501.11,-93.24 5491.85,-88.09 5490.66,-94.99"/>
<text text-anchor="middle" x="5455.13" y="-93.7" font-family="Times,serif" font-size="14.00">Raimondo</text>
</g>
<!-- 16 -->
<g id="node16" class="node">
<title>16</title>
<ellipse fill="none" stroke="black" cx="5832.44" cy="-94" rx="34.97" ry="18"/>
<text text-anchor="middle" x="5832.44" y="-88.95" font-family="Times,serif" font-size="14.00">at best</text>
</g>
<!-- 15&#45;&gt;16 -->
<g id="edge22" class="edge">
<title>15&#45;&gt;16</title>
<path fill="none" stroke="black" d="M5555.68,-96.92C5576.7,-95.35 5607.05,-93.33 5633.63,-92.5 5685.8,-90.87 5745.76,-91.71 5785.86,-92.65"/>
<polygon fill="black" stroke="black" points="5785.53,-96.14 5795.61,-92.9 5785.7,-89.15 5785.53,-96.14"/>
<text text-anchor="middle" x="5671.67" y="-95.7" font-family="Times,serif" font-size="14.00">Raimondo</text>
</g>
<!-- 36 -->
<g id="node36" class="node">
<title>36</title>
<ellipse fill="none" stroke="black" cx="5671.67" cy="-136" rx="38.04" ry="18"/>
<text text-anchor="middle" x="5671.67" y="-130.95" font-family="Times,serif" font-size="14.00">would&quot;</text>
</g>
<!-- 15&#45;&gt;36 -->
<g id="edge23" class="edge">
<title>15&#45;&gt;36</title>
<path fill="none" stroke="black" d="M5554.2,-105.44C5574.16,-110.68 5602.83,-118.2 5626.72,-124.47"/>
<polygon fill="black" stroke="black" points="5625.64,-127.81 5636.2,-126.96 5627.42,-121.03 5625.64,-127.81"/>
<text text-anchor="middle" x="5594.63" y="-124.01" font-family="Times,serif" font-size="14.00">Becerra</text>
</g>
<!-- 17 -->
<g id="node17" class="node">
<title>17</title>
<ellipse fill="none" stroke="black" cx="5993.34" cy="-75" rx="27" ry="18"/>
<text text-anchor="middle" x="5993.34" y="-69.95" font-family="Times,serif" font-size="14.00">, &quot;</text>
</g>
<!-- 16&#45;&gt;17 -->
<g id="edge24" class="edge">
<title>16&#45;&gt;17</title>
<path fill="none" stroke="black" d="M5866.41,-89.06C5872.71,-88.17 5879.26,-87.27 5885.42,-86.5 5908.49,-83.6 5934.42,-80.79 5954.97,-78.68"/>
<polygon fill="black" stroke="black" points="5955.28,-82.17 5964.88,-77.68 5954.57,-75.21 5955.28,-82.17"/>
<text text-anchor="middle" x="5913.92" y="-89.7" font-family="Times,serif" font-size="14.00">Raimondo</text>
</g>
<!-- 37 -->
<g id="node37" class="node">
<title>37</title>
<ellipse fill="none" stroke="black" cx="5993.34" cy="-129" rx="32.93" ry="18"/>
<text text-anchor="middle" x="5993.34" y="-123.95" font-family="Times,serif" font-size="14.00">,&quot; be&quot;</text>
</g>
<!-- 16&#45;&gt;37 -->
<g id="edge25" class="edge">
<title>16&#45;&gt;37</title>
<path fill="none" stroke="black" d="M5865.22,-101C5889.94,-106.44 5924.44,-114.04 5951.26,-119.95"/>
<polygon fill="black" stroke="black" points="5950.24,-123.31 5960.76,-122.04 5951.75,-116.47 5950.24,-123.31"/>
<text text-anchor="middle" x="5913.92" y="-120.88" font-family="Times,serif" font-size="14.00">Becerra</text>
</g>
<!-- 18 -->
<g id="node18" class="node">
<title>18</title>
<ellipse fill="none" stroke="black" cx="6192.63" cy="-75" rx="73.36" ry="18"/>
<text text-anchor="middle" x="6192.63" y="-69.95" font-family="Times,serif" font-size="14.00">just an argument</text>
</g>
<!-- 17&#45;&gt;18 -->
<g id="edge26" class="edge">
<title>17&#45;&gt;18</title>
<path fill="none" stroke="black" d="M6020.54,-75C6042.85,-75 6076.18,-75 6107.51,-75"/>
<polygon fill="black" stroke="black" points="6107.43,-78.5 6117.43,-75 6107.43,-71.5 6107.43,-78.5"/>
<text text-anchor="middle" x="6072.77" y="-78.2" font-family="Times,serif" font-size="14.00">Raimondo</text>
</g>
<!-- 19 -->
<g id="node19" class="node">
<title>19</title>
<ellipse fill="none" stroke="black" cx="6435.49" cy="-45" rx="27" ry="18"/>
<text text-anchor="middle" x="6435.49" y="-39.95" font-family="Times,serif" font-size="14.00">that</text>
</g>
<!-- 18&#45;&gt;19 -->
<g id="edge27" class="edge">
<title>18&#45;&gt;19</title>
<path fill="none" stroke="black" d="M6258.81,-66.88C6303.31,-61.34 6360.66,-54.19 6397.51,-49.61"/>
<polygon fill="black" stroke="black" points="6397.72,-53.11 6407.21,-48.4 6396.85,-46.16 6397.72,-53.11"/>
<text text-anchor="middle" x="6337.24" y="-66.77" font-family="Times,serif" font-size="14.00">Raimondo, Becerra</text>
</g>
<!-- 20 -->
<g id="node20" class="node">
<title>20</title>
<ellipse fill="none" stroke="black" cx="6746.93" cy="-72" rx="141.94" ry="18"/>
<text text-anchor="middle" x="6746.93" y="-66.95" font-family="Times,serif" font-size="14.00">the precedent was wrongly decided</text>
</g>
<!-- 19&#45;&gt;20 -->
<g id="edge28" class="edge">
<title>19&#45;&gt;20</title>
<path fill="none" stroke="black" d="M6462.6,-47.28C6496.89,-50.27 6559.51,-55.73 6617.17,-60.77"/>
<polygon fill="black" stroke="black" points="6616.85,-64.25 6627.12,-61.63 6617.46,-57.28 6616.85,-64.25"/>
<text text-anchor="middle" x="6533.74" y="-60.89" font-family="Times,serif" font-size="14.00">Raimondo, Becerra</text>
</g>
<!-- 29 -->
<g id="node29" class="node">
<title>29</title>
<ellipse fill="none" stroke="black" cx="6746.93" cy="-18" rx="50.33" ry="18"/>
<text text-anchor="middle" x="6746.93" y="-12.95" font-family="Times,serif" font-size="14.00">mere error</text>
</g>
<!-- 19&#45;&gt;29 -->
<g id="edge29" class="edge">
<title>19&#45;&gt;29</title>
<path fill="none" stroke="black" d="M6458.46,-35.19C6465.38,-32.53 6473.13,-29.98 6480.49,-28.5 6549.77,-14.52 6631.23,-13.51 6685.46,-14.96"/>
<polygon fill="black" stroke="black" points="6685.32,-18.46 6695.43,-15.27 6685.54,-11.46 6685.32,-18.46"/>
<text text-anchor="middle" x="6533.74" y="-31.7" font-family="Times,serif" font-size="14.00">Trumbull</text>
</g>
<!-- 21 -->
<g id="node21" class="node">
<title>21</title>
<ellipse fill="none" stroke="black" cx="7128.87" cy="-84" rx="27" ry="18"/>
<text text-anchor="middle" x="7128.87" y="-78.95" font-family="Times,serif" font-size="14.00">.</text>
</g>
<!-- 20&#45;&gt;21 -->
<g id="edge30" class="edge">
<title>20&#45;&gt;21</title>
<path fill="none" stroke="black" d="M6888.7,-73.65C6932.06,-74.47 6979.94,-75.69 7023.87,-77.5 7045.98,-78.41 7070.7,-79.93 7090.49,-81.28"/>
<polygon fill="black" stroke="black" points="7090.09,-84.76 7100.3,-81.96 7090.57,-77.78 7090.09,-84.76"/>
<text text-anchor="middle" x="6995.37" y="-80.7" font-family="Times,serif" font-size="14.00">Raimondo</text>
</g>
<!-- 38 -->
<g id="node38" class="node">
<title>38</title>
<ellipse fill="none" stroke="black" cx="6995.37" cy="-121" rx="27.81" ry="18"/>
<text text-anchor="middle" x="6995.37" y="-115.95" font-family="Times,serif" font-size="14.00">.&quot; Id</text>
</g>
<!-- 20&#45;&gt;38 -->
<g id="edge31" class="edge">
<title>20&#45;&gt;38</title>
<path fill="none" stroke="black" d="M6825.23,-87.37C6869.23,-96.12 6922.36,-106.68 6957.18,-113.61"/>
<polygon fill="black" stroke="black" points="6956.28,-116.99 6966.77,-115.51 6957.64,-110.13 6956.28,-116.99"/>
<text text-anchor="middle" x="6927.87" y="-114.83" font-family="Times,serif" font-size="14.00">Becerra</text>
</g>
<!-- 22 -->
<g id="node22" class="node">
<title>22</title>
<ellipse fill="none" stroke="black" cx="7395.42" cy="-64" rx="27.81" ry="18"/>
<text text-anchor="middle" x="7395.42" y="-58.95" font-family="Times,serif" font-size="14.00">That</text>
</g>
<!-- 21&#45;&gt;22 -->
<g id="edge32" class="edge">
<title>21&#45;&gt;22</title>
<path fill="none" stroke="black" d="M7154.9,-78.54C7161.08,-77.37 7167.69,-76.25 7173.87,-75.5 7237.32,-67.76 7311.66,-65.22 7355.8,-64.39"/>
<polygon fill="black" stroke="black" points="7355.69,-67.9 7365.64,-64.23 7355.58,-60.9 7355.69,-67.9"/>
<text text-anchor="middle" x="7202.37" y="-78.7" font-family="Times,serif" font-size="14.00">Raimondo</text>
</g>
<!-- 39 -->
<g id="node39" class="node">
<title>39</title>
<ellipse fill="none" stroke="black" cx="7395.42" cy="-118" rx="146.55" ry="18"/>
<text text-anchor="middle" x="7395.42" y="-112.95" font-family="Times,serif" font-size="14.00">And this, as the majority concluded,</text>
</g>
<!-- 21&#45;&gt;39 -->
<g id="edge33" class="edge">
<title>21&#45;&gt;39</title>
<path fill="none" stroke="black" d="M7154.95,-88.84C7161.13,-89.95 7167.73,-91.08 7173.87,-92 7205.42,-96.72 7239.61,-101.11 7271.45,-104.88"/>
<polygon fill="black" stroke="black" points="7270.76,-108.33 7281.1,-106.02 7271.58,-101.37 7270.76,-108.33"/>
<text text-anchor="middle" x="7202.37" y="-102.73" font-family="Times,serif" font-size="14.00">Becerra</text>
</g>
<!-- 23 -->
<g id="node23" class="node">
<title>23</title>
<ellipse fill="none" stroke="black" cx="7661.96" cy="-64" rx="27" ry="18"/>
<text text-anchor="middle" x="7661.96" y="-58.95" font-family="Times,serif" font-size="14.00">is</text>
</g>
<!-- 22&#45;&gt;23 -->
<g id="edge34" class="edge">
<title>22&#45;&gt;23</title>
<path fill="none" stroke="black" d="M7423.24,-64C7470.5,-64 7568.73,-64 7622.96,-64"/>
<polygon fill="black" stroke="black" points="7622.95,-67.5 7632.95,-64 7622.95,-60.5 7622.95,-67.5"/>
<text text-anchor="middle" x="7588.46" y="-67.2" font-family="Times,serif" font-size="14.00">Raimondo</text>
</g>
<!-- 24 -->
<g id="node24" class="node">
<title>24</title>
<ellipse fill="none" stroke="black" cx="8229.45" cy="-64" rx="208.99" ry="18"/>
<text text-anchor="middle" x="8229.45" y="-58.95" font-family="Times,serif" font-size="14.00">not enough to justify overruling a statutory precedent</text>
</g>
<!-- 23&#45;&gt;24 -->
<g id="edge35" class="edge">
<title>23&#45;&gt;24</title>
<path fill="none" stroke="black" d="M7686.43,-72.29C7692.99,-74.23 7700.18,-76.02 7706.96,-77 7751.5,-83.44 7763.22,-77.7 7808.21,-77 7878.91,-75.91 7956.26,-73.78 8025.12,-71.56"/>
<polygon fill="black" stroke="black" points="8025.14,-75.06 8035.03,-71.24 8024.92,-68.06 8025.14,-75.06"/>
<text text-anchor="middle" x="7854.71" y="-79.89" font-family="Times,serif" font-size="14.00">Raimondo</text>
</g>
<!-- 30 -->
<g id="node30" class="node">
<title>30</title>
<ellipse fill="none" stroke="black" cx="7854.71" cy="-37" rx="27" ry="18"/>
<text text-anchor="middle" x="7854.71" y="-31.95" font-family="Times,serif" font-size="14.00">&quot;</text>
</g>
<!-- 23&#45;&gt;30 -->
<g id="edge36" class="edge">
<title>23&#45;&gt;30</title>
<path fill="none" stroke="black" d="M7688.69,-60.36C7721.68,-55.69 7779.13,-47.56 7816.78,-42.23"/>
<polygon fill="black" stroke="black" points="7816.88,-45.75 7826.29,-40.88 7815.9,-38.82 7816.88,-45.75"/>
<text text-anchor="middle" x="7757.59" y="-60.68" font-family="Times,serif" font-size="14.00">Trumbull, Becerra</text>
</g>
<!-- 25 -->
<g id="node25" class="node">
<title>25</title>
<ellipse fill="none" stroke="black" cx="8602.69" cy="-91" rx="27" ry="18"/>
<text text-anchor="middle" x="8602.69" y="-85.95" font-family="Times,serif" font-size="14.00">.</text>
</g>
<!-- 24&#45;&gt;25 -->
<g id="edge37" class="edge">
<title>24&#45;&gt;25</title>
<path fill="none" stroke="black" d="M8391.39,-75.71C8455.38,-80.36 8523.34,-85.3 8564.15,-88.27"/>
<polygon fill="black" stroke="black" points="8563.67,-91.74 8573.9,-88.98 8564.18,-84.76 8563.67,-91.74"/>
<text text-anchor="middle" x="8507.07" y="-90.85" font-family="Times,serif" font-size="14.00">Raimondo</text>
</g>
<!-- 31 -->
<g id="node31" class="node">
<title>31</title>
<ellipse fill="none" stroke="black" cx="8602.69" cy="-37" rx="27" ry="18"/>
<text text-anchor="middle" x="8602.69" y="-31.95" font-family="Times,serif" font-size="14.00">.&quot;</text>
</g>
<!-- 24&#45;&gt;31 -->
<g id="edge38" class="edge">
<title>24&#45;&gt;31</title>
<path fill="none" stroke="black" d="M8391.39,-52.29C8455.38,-47.64 8523.34,-42.7 8564.15,-39.73"/>
<polygon fill="black" stroke="black" points="8564.18,-43.24 8573.9,-39.02 8563.67,-36.26 8564.18,-43.24"/>
<text text-anchor="middle" x="8507.07" y="-50.49" font-family="Times,serif" font-size="14.00">Trumbull, Becerra</text>
</g>
<!-- 25&#45;&gt;2 -->
<g id="edge39" class="edge">
<title>25&#45;&gt;2</title>
<path fill="none" stroke="black" d="M8629.61,-87.3C8662.22,-82.65 8718.45,-74.63 8755.67,-69.32"/>
<polygon fill="black" stroke="black" points="8756.13,-72.79 8765.54,-67.91 8755.14,-65.86 8756.13,-72.79"/>
<text text-anchor="middle" x="8698.32" y="-87.68" font-family="Times,serif" font-size="14.00">Raimondo</text>
</g>
<!-- 27 -->
<g id="node27" class="node">
<title>27</title>
<ellipse fill="none" stroke="black" cx="1756.13" cy="-28" rx="79.5" ry="18"/>
<text text-anchor="middle" x="1756.13" y="-22.95" font-family="Times,serif" font-size="14.00">acknowledged its&quot;</text>
</g>
<!-- 26&#45;&gt;27 -->
<g id="edge40" class="edge">
<title>26&#45;&gt;27</title>
<path fill="none" stroke="black" d="M1338.61,-39.3C1344.54,-39 1350.7,-38.72 1356.47,-38.5 1462.52,-34.39 1584.51,-31.44 1665.32,-29.73"/>
<polygon fill="black" stroke="black" points="1665.01,-33.24 1674.93,-29.53 1664.86,-26.24 1665.01,-33.24"/>
<text text-anchor="middle" x="1384.97" y="-41.7" font-family="Times,serif" font-size="14.00">Trumbull</text>
</g>
<!-- 33 -->
<g id="node33" class="node">
<title>33</title>
<ellipse fill="none" stroke="black" cx="1756.13" cy="-82" rx="324.66" ry="18"/>
<text text-anchor="middle" x="1756.13" y="-76.95" font-family="Times,serif" font-size="14.00">cautioned litigants hoping to rehash or relitigate previously settled issues decided on</text>
</g>
<!-- 26&#45;&gt;33 -->
<g id="edge41" class="edge">
<title>26&#45;&gt;33</title>
<path fill="none" stroke="black" d="M1334.75,-49.88C1341.76,-51.87 1349.34,-53.75 1356.47,-55 1394.81,-61.71 1435.49,-66.77 1475.64,-70.59"/>
<polygon fill="black" stroke="black" points="1475.16,-74.06 1485.44,-71.5 1475.8,-67.09 1475.16,-74.06"/>
<text text-anchor="middle" x="1384.97" y="-66.39" font-family="Times,serif" font-size="14.00">Becerra</text>
</g>
<!-- 27&#45;&gt;7 -->
<g id="edge42" class="edge">
<title>27&#45;&gt;7</title>
<path fill="none" stroke="black" d="M1835.95,-29C2010.43,-31.32 2442.51,-37.58 2804.2,-47 2832.27,-47.73 2862.21,-48.65 2891.01,-49.59"/>
<polygon fill="black" stroke="black" points="2890.78,-53.09 2900.89,-49.92 2891.02,-46.09 2890.78,-53.09"/>
<text text-anchor="middle" x="2290.59" y="-39.76" font-family="Times,serif" font-size="14.00">Trumbull</text>
</g>
<!-- 28&#45;&gt;19 -->
<g id="edge43" class="edge">
<title>28&#45;&gt;19</title>
<path fill="none" stroke="black" d="M4929.74,-29C5019.96,-29 5121.67,-29 5214.51,-29 5214.51,-29 5214.51,-29 6193.63,-29 6265.87,-29 6350.04,-36.26 6397.31,-40.99"/>
<polygon fill="black" stroke="black" points="6396.69,-44.45 6407,-41.99 6397.41,-37.49 6396.69,-44.45"/>
<text text-anchor="middle" x="5753.59" y="-32.2" font-family="Times,serif" font-size="14.00">Trumbull</text>
</g>
<!-- 29&#45;&gt;23 -->
<g id="edge44" class="edge">
<title>29&#45;&gt;23</title>
<path fill="none" stroke="black" d="M6797.49,-18C6847.26,-18 6926.13,-18 6994.37,-18 6994.37,-18 6994.37,-18 7396.42,-18 7479.67,-18 7575.51,-40.39 7625.86,-53.93"/>
<polygon fill="black" stroke="black" points="7624.74,-57.25 7635.31,-56.51 7626.59,-50.5 7624.74,-57.25"/>
<text text-anchor="middle" x="7128.87" y="-21.2" font-family="Times,serif" font-size="14.00">Trumbull</text>
</g>
<!-- 30&#45;&gt;24 -->
<g id="edge45" class="edge">
<title>30&#45;&gt;24</title>
<path fill="none" stroke="black" d="M7881.92,-38.9C7918.66,-41.56 7988.53,-46.62 8055.97,-51.51"/>
<polygon fill="black" stroke="black" points="8055.47,-54.98 8065.69,-52.21 8055.97,-48 8055.47,-54.98"/>
<text text-anchor="middle" x="7951.84" y="-50.49" font-family="Times,serif" font-size="14.00">Trumbull, Becerra</text>
</g>
<!-- 31&#45;&gt;2 -->
<g id="edge46" class="edge">
<title>31&#45;&gt;2</title>
<path fill="none" stroke="black" d="M8629.9,-37.82C8659.16,-39.11 8707.82,-42.37 8748.94,-50.5 8752.1,-51.12 8755.36,-51.89 8758.6,-52.73"/>
<polygon fill="black" stroke="black" points="8757.39,-56.02 8767.96,-55.4 8759.3,-49.29 8757.39,-56.02"/>
<text text-anchor="middle" x="8698.32" y="-53.7" font-family="Times,serif" font-size="14.00">Trumbull, Becerra</text>
</g>
<!-- 32&#45;&gt;26 -->
<g id="edge47" class="edge">
<title>32&#45;&gt;26</title>
<path fill="none" stroke="black" d="M843.41,-22.71C938.95,-26.49 1167.68,-35.54 1262.87,-39.31"/>
<polygon fill="black" stroke="black" points="1262.69,-42.81 1272.82,-39.7 1262.97,-35.81 1262.69,-42.81"/>
<text text-anchor="middle" x="1235.67" y="-42.12" font-family="Times,serif" font-size="14.00">Becerra</text>
</g>
<!-- 33&#45;&gt;5 -->
<g id="edge48" class="edge">
<title>33&#45;&gt;5</title>
<path fill="none" stroke="black" d="M2026.51,-92.26C2064.87,-93.9 2103.83,-95.67 2140.79,-97.5 2142.96,-97.61 2145.18,-97.72 2147.43,-97.84"/>
<polygon fill="black" stroke="black" points="2147.04,-101.32 2157.21,-98.37 2147.42,-94.33 2147.04,-101.32"/>
<text text-anchor="middle" x="2119.79" y="-100.7" font-family="Times,serif" font-size="14.00">Becerra</text>
</g>
<!-- 34&#45;&gt;9 -->
<g id="edge49" class="edge">
<title>34&#45;&gt;9</title>
<path fill="none" stroke="black" d="M2629.85,-127.38C2782.04,-125.75 3196.24,-121.32 3431.08,-118.8"/>
<polygon fill="black" stroke="black" points="3431,-122.3 3440.96,-118.7 3430.93,-115.3 3431,-122.3"/>
<text text-anchor="middle" x="3230.65" y="-124.44" font-family="Times,serif" font-size="14.00">Becerra</text>
</g>
<!-- 35&#45;&gt;15 -->
<g id="edge50" class="edge">
<title>35&#45;&gt;15</title>
<path fill="none" stroke="black" d="M5349.92,-122.2C5392.71,-118.16 5440.25,-113.04 5483.63,-107 5486.13,-106.65 5488.7,-106.26 5491.29,-105.85"/>
<polygon fill="black" stroke="black" points="5491.8,-109.31 5501.07,-104.18 5490.62,-102.41 5491.8,-109.31"/>
<text text-anchor="middle" x="5455.13" y="-116.7" font-family="Times,serif" font-size="14.00">Becerra</text>
</g>
<!-- 36&#45;&gt;16 -->
<g id="edge51" class="edge">
<title>36&#45;&gt;16</title>
<path fill="none" stroke="black" d="M5705.57,-127.3C5730.05,-120.82 5763.63,-111.94 5789.95,-104.98"/>
<polygon fill="black" stroke="black" points="5790.51,-108.45 5799.28,-102.51 5788.72,-101.68 5790.51,-108.45"/>
<text text-anchor="middle" x="5753.59" y="-124.42" font-family="Times,serif" font-size="14.00">Becerra</text>
</g>
<!-- 37&#45;&gt;18 -->
<g id="edge52" class="edge">
<title>37&#45;&gt;18</title>
<path fill="none" stroke="black" d="M6023.45,-121.03C6051.82,-113.27 6095.78,-101.23 6131.65,-91.42"/>
<polygon fill="black" stroke="black" points="6132.31,-94.86 6141.04,-88.85 6130.47,-88.11 6132.31,-94.86"/>
<text text-anchor="middle" x="6072.77" y="-117.72" font-family="Times,serif" font-size="14.00">Becerra</text>
</g>
<!-- 38&#45;&gt;21 -->
<g id="edge53" class="edge">
<title>38&#45;&gt;21</title>
<path fill="none" stroke="black" d="M7021.41,-113.95C7041.56,-108.29 7070.11,-100.25 7092.57,-93.93"/>
<polygon fill="black" stroke="black" points="7093.23,-97.38 7101.91,-91.3 7091.33,-90.64 7093.23,-97.38"/>
<text text-anchor="middle" x="7062.87" y="-111.18" font-family="Times,serif" font-size="14.00">Becerra</text>
</g>
<!-- 39&#45;&gt;23 -->
<g id="edge54" class="edge">
<title>39&#45;&gt;23</title>
<path fill="none" stroke="black" d="M7513.75,-107.02C7547.53,-102.1 7584.11,-95.05 7616.96,-85 7621.3,-83.67 7625.75,-81.98 7630.08,-80.14"/>
<polygon fill="black" stroke="black" points="7631.45,-83.36 7639.06,-75.99 7628.52,-77 7631.45,-83.36"/>
<text text-anchor="middle" x="7588.46" y="-101.55" font-family="Times,serif" font-size="14.00">Becerra</text>
</g>
</g>
</svg>
